<svg xmlns="http://www.w3.org/2000/svg" width="1200" height="900" viewBox="0 0 1200 900">
<rect width="100%" height="100%" fill="#0f0f1a"/>
<line x1="600.0" y1="60.0" x2="630.2" y2="61.2" stroke="#3a3a5a" stroke-width="0.5" stroke-opacity="0.6"/>
<line x1="600.0" y1="60.0" x2="660.3" y2="64.7" stroke="#3a3a5a" stroke-width="0.5" stroke-opacity="0.6"/>
<line x1="600.0" y1="60.0" x2="689.9" y2="70.5" stroke="#3a3a5a" stroke-width="0.5" stroke-opacity="0.6"/>
<line x1="600.0" y1="60.0" x2="719.1" y2="78.6" stroke="#3a3a5a" stroke-width="0.5" stroke-opacity="0.6"/>
<line x1="600.0" y1="60.0" x2="747.5" y2="89.0" stroke="#3a3a5a" stroke-width="0.5" stroke-opacity="0.6"/>
<line x1="600.0" y1="60.0" x2="775.0" y2="101.5" stroke="#3a3a5a" stroke-width="0.5" stroke-opacity="0.6"/>
<line x1="600.0" y1="60.0" x2="801.5" y2="116.1" stroke="#3a3a5a" stroke-width="0.5" stroke-opacity="0.6"/>
<line x1="600.0" y1="60.0" x2="826.8" y2="132.7" stroke="#3a3a5a" stroke-width="0.5" stroke-opacity="0.6"/>
<line x1="600.0" y1="60.0" x2="850.7" y2="151.2" stroke="#3a3a5a" stroke-width="0.5" stroke-opacity="0.6"/>
<line x1="600.0" y1="60.0" x2="873.1" y2="171.6" stroke="#3a3a5a" stroke-width="0.5" stroke-opacity="0.6"/>
<line x1="600.0" y1="60.0" x2="893.8" y2="193.6" stroke="#3a3a5a" stroke-width="0.5" stroke-opacity="0.6"/>
<line x1="600.0" y1="60.0" x2="912.8" y2="217.1" stroke="#3a3a5a" stroke-width="0.5" stroke-opacity="0.6"/>
<line x1="600.0" y1="60.0" x2="929.9" y2="242.1" stroke="#3a3a5a" stroke-width="0.5" stroke-opacity="0.6"/>
<line x1="600.0" y1="60.0" x2="945.1" y2="268.2" stroke="#3a3a5a" stroke-width="0.5" stroke-opacity="0.6"/>
<line x1="600.0" y1="60.0" x2="958.1" y2="295.5" stroke="#3a3a5a" stroke-width="0.5" stroke-opacity="0.6"/>
<line x1="600.0" y1="60.0" x2="969.0" y2="323.7" stroke="#3a3a5a" stroke-width="0.5" stroke-opacity="0.6"/>
<line x1="600.0" y1="60.0" x2="977.7" y2="352.7" stroke="#3a3a5a" stroke-width="0.5" stroke-opacity="0.6"/>
<line x1="600.0" y1="60.0" x2="984.1" y2="382.3" stroke="#3a3a5a" stroke-width="0.5" stroke-opacity="0.6"/>
<line x1="850.7" y1="151.2" x2="826.8" y2="132.7" stroke="#3a3a5a" stroke-width="0.5" stroke-opacity="0.6"/>
<line x1="873.1" y1="171.6" x2="826.8" y2="132.7" stroke="#3a3a5a" stroke-width="0.5" stroke-opacity="0.6"/>
<line x1="912.8" y1="217.1" x2="775.0" y2="101.5" stroke="#3a3a5a" stroke-width="0.5" stroke-opacity="0.6"/>
<line x1="912.8" y1="217.1" x2="850.7" y2="151.2" stroke="#3a3a5a" stroke-width="0.5" stroke-opacity="0.6"/>
<line x1="912.8" y1="217.1" x2="893.8" y2="193.6" stroke="#3a3a5a" stroke-width="0.5" stroke-opacity="0.6"/>
<line x1="912.8" y1="217.1" x2="873.1" y2="171.6" stroke="#3a3a5a" stroke-width="0.5" stroke-opacity="0.6"/>
<line x1="912.8" y1="217.1" x2="801.5" y2="116.1" stroke="#3a3a5a" stroke-width="0.5" stroke-opacity="0.6"/>
<line x1="929.9" y1="242.1" x2="775.0" y2="101.5" stroke="#3a3a5a" stroke-width="0.5" stroke-opacity="0.6"/>
<line x1="929.9" y1="242.1" x2="850.7" y2="151.2" stroke="#3a3a5a" stroke-width="0.5" stroke-opacity="0.6"/>
<line x1="945.1" y1="268.2" x2="912.8" y2="217.1" stroke="#3a3a5a" stroke-width="0.5" stroke-opacity="0.6"/>
<line x1="958.1" y1="295.5" x2="929.9" y2="242.1" stroke="#3a3a5a" stroke-width="0.5" stroke-opacity="0.6"/>
<line x1="969.0" y1="323.7" x2="775.0" y2="101.5" stroke="#3a3a5a" stroke-width="0.5" stroke-opacity="0.6"/>
<line x1="969.0" y1="323.7" x2="801.5" y2="116.1" stroke="#3a3a5a" stroke-width="0.5" stroke-opacity="0.6"/>
<line x1="977.7" y1="352.7" x2="969.0" y2="323.7" stroke="#3a3a5a" stroke-width="0.5" stroke-opacity="0.6"/>
<line x1="988.2" y1="412.2" x2="989.9" y2="442.4" stroke="#3a3a5a" stroke-width="0.5" stroke-opacity="0.6"/>
<line x1="988.2" y1="412.2" x2="989.3" y2="472.7" stroke="#3a3a5a" stroke-width="0.5" stroke-opacity="0.6"/>
<line x1="988.2" y1="412.2" x2="986.4" y2="502.8" stroke="#3a3a5a" stroke-width="0.5" stroke-opacity="0.6"/>
<line x1="988.2" y1="412.2" x2="981.2" y2="532.6" stroke="#3a3a5a" stroke-width="0.5" stroke-opacity="0.6"/>
<line x1="988.2" y1="412.2" x2="973.6" y2="561.9" stroke="#3a3a5a" stroke-width="0.5" stroke-opacity="0.6"/>
<line x1="988.2" y1="412.2" x2="963.8" y2="590.5" stroke="#3a3a5a" stroke-width="0.5" stroke-opacity="0.6"/>
<line x1="988.2" y1="412.2" x2="951.8" y2="618.2" stroke="#3a3a5a" stroke-width="0.5" stroke-opacity="0.6"/>
<line x1="988.2" y1="412.2" x2="937.7" y2="645.0" stroke="#3a3a5a" stroke-width="0.5" stroke-opacity="0.6"/>
<line x1="988.2" y1="412.2" x2="921.6" y2="670.6" stroke="#3a3a5a" stroke-width="0.5" stroke-opacity="0.6"/>
<line x1="937.7" y1="645.0" x2="963.8" y2="590.5" stroke="#3a3a5a" stroke-width="0.5" stroke-opacity="0.6"/>
<line x1="937.7" y1="645.0" x2="973.6" y2="561.9" stroke="#3a3a5a" stroke-width="0.5" stroke-opacity="0.6"/>
<line x1="937.7" y1="645.0" x2="951.8" y2="618.2" stroke="#3a3a5a" stroke-width="0.5" stroke-opacity="0.6"/>
<line x1="921.6" y1="670.6" x2="937.7" y2="645.0" stroke="#3a3a5a" stroke-width="0.5" stroke-opacity="0.6"/>
<line x1="903.6" y1="694.8" x2="883.7" y2="717.6" stroke="#3a3a5a" stroke-width="0.5" stroke-opacity="0.6"/>
<line x1="903.6" y1="694.8" x2="862.1" y2="738.8" stroke="#3a3a5a" stroke-width="0.5" stroke-opacity="0.6"/>
<line x1="903.6" y1="694.8" x2="838.9" y2="758.3" stroke="#3a3a5a" stroke-width="0.5" stroke-opacity="0.6"/>
<line x1="903.6" y1="694.8" x2="814.3" y2="775.8" stroke="#3a3a5a" stroke-width="0.5" stroke-opacity="0.6"/>
<line x1="903.6" y1="694.8" x2="788.4" y2="791.5" stroke="#3a3a5a" stroke-width="0.5" stroke-opacity="0.6"/>
<line x1="903.6" y1="694.8" x2="761.4" y2="805.0" stroke="#3a3a5a" stroke-width="0.5" stroke-opacity="0.6"/>
<line x1="903.6" y1="694.8" x2="733.4" y2="816.5" stroke="#3a3a5a" stroke-width="0.5" stroke-opacity="0.6"/>
<line x1="903.6" y1="694.8" x2="704.6" y2="825.7" stroke="#3a3a5a" stroke-width="0.5" stroke-opacity="0.6"/>
<line x1="903.6" y1="694.8" x2="675.2" y2="832.7" stroke="#3a3a5a" stroke-width="0.5" stroke-opacity="0.6"/>
<line x1="704.6" y1="825.7" x2="733.4" y2="816.5" stroke="#3a3a5a" stroke-width="0.5" stroke-opacity="0.6"/>
<line x1="704.6" y1="825.7" x2="761.4" y2="805.0" stroke="#3a3a5a" stroke-width="0.5" stroke-opacity="0.6"/>
<line x1="675.2" y1="832.7" x2="704.6" y2="825.7" stroke="#3a3a5a" stroke-width="0.5" stroke-opacity="0.6"/>
<line x1="645.3" y1="837.4" x2="615.1" y2="839.7" stroke="#3a3a5a" stroke-width="0.5" stroke-opacity="0.6"/>
<line x1="645.3" y1="837.4" x2="584.9" y2="839.7" stroke="#3a3a5a" stroke-width="0.5" stroke-opacity="0.6"/>
<line x1="645.3" y1="837.4" x2="554.7" y2="837.4" stroke="#3a3a5a" stroke-width="0.5" stroke-opacity="0.6"/>
<line x1="645.3" y1="837.4" x2="524.8" y2="832.7" stroke="#3a3a5a" stroke-width="0.5" stroke-opacity="0.6"/>
<line x1="645.3" y1="837.4" x2="495.4" y2="825.7" stroke="#3a3a5a" stroke-width="0.5" stroke-opacity="0.6"/>
<line x1="645.3" y1="837.4" x2="466.6" y2="816.5" stroke="#3a3a5a" stroke-width="0.5" stroke-opacity="0.6"/>
<line x1="645.3" y1="837.4" x2="438.6" y2="805.0" stroke="#3a3a5a" stroke-width="0.5" stroke-opacity="0.6"/>
<line x1="645.3" y1="837.4" x2="411.6" y2="791.5" stroke="#3a3a5a" stroke-width="0.5" stroke-opacity="0.6"/>
<line x1="645.3" y1="837.4" x2="385.7" y2="775.8" stroke="#3a3a5a" stroke-width="0.5" stroke-opacity="0.6"/>
<line x1="645.3" y1="837.4" x2="361.1" y2="758.3" stroke="#3a3a5a" stroke-width="0.5" stroke-opacity="0.6"/>
<line x1="645.3" y1="837.4" x2="337.9" y2="738.8" stroke="#3a3a5a" stroke-width="0.5" stroke-opacity="0.6"/>
<line x1="645.3" y1="837.4" x2="316.3" y2="717.6" stroke="#3a3a5a" stroke-width="0.5" stroke-opacity="0.6"/>
<line x1="645.3" y1="837.4" x2="296.4" y2="694.8" stroke="#3a3a5a" stroke-width="0.5" stroke-opacity="0.6"/>
<line x1="645.3" y1="837.4" x2="278.4" y2="670.6" stroke="#3a3a5a" stroke-width="0.5" stroke-opacity="0.6"/>
<line x1="645.3" y1="837.4" x2="262.3" y2="645.0" stroke="#3a3a5a" stroke-width="0.5" stroke-opacity="0.6"/>
<line x1="645.3" y1="837.4" x2="248.2" y2="618.2" stroke="#3a3a5a" stroke-width="0.5" stroke-opacity="0.6"/>
<line x1="645.3" y1="837.4" x2="236.2" y2="590.5" stroke="#3a3a5a" stroke-width="0.5" stroke-opacity="0.6"/>
<line x1="645.3" y1="837.4" x2="226.4" y2="561.9" stroke="#3a3a5a" stroke-width="0.5" stroke-opacity="0.6"/>
<line x1="645.3" y1="837.4" x2="218.8" y2="532.6" stroke="#3a3a5a" stroke-width="0.5" stroke-opacity="0.6"/>
<line x1="645.3" y1="837.4" x2="213.6" y2="502.8" stroke="#3a3a5a" stroke-width="0.5" stroke-opacity="0.6"/>
<line x1="645.3" y1="837.4" x2="210.7" y2="472.7" stroke="#3a3a5a" stroke-width="0.5" stroke-opacity="0.6"/>
<line x1="645.3" y1="837.4" x2="210.1" y2="442.4" stroke="#3a3a5a" stroke-width="0.5" stroke-opacity="0.6"/>
<line x1="645.3" y1="837.4" x2="211.8" y2="412.2" stroke="#3a3a5a" stroke-width="0.5" stroke-opacity="0.6"/>
<line x1="645.3" y1="837.4" x2="215.9" y2="382.3" stroke="#3a3a5a" stroke-width="0.5" stroke-opacity="0.6"/>
<line x1="645.3" y1="837.4" x2="222.3" y2="352.7" stroke="#3a3a5a" stroke-width="0.5" stroke-opacity="0.6"/>
<line x1="645.3" y1="837.4" x2="231.0" y2="323.7" stroke="#3a3a5a" stroke-width="0.5" stroke-opacity="0.6"/>
<line x1="645.3" y1="837.4" x2="241.9" y2="295.5" stroke="#3a3a5a" stroke-width="0.5" stroke-opacity="0.6"/>
<line x1="645.3" y1="837.4" x2="254.9" y2="268.2" stroke="#3a3a5a" stroke-width="0.5" stroke-opacity="0.6"/>
<line x1="645.3" y1="837.4" x2="270.1" y2="242.1" stroke="#3a3a5a" stroke-width="0.5" stroke-opacity="0.6"/>
<line x1="645.3" y1="837.4" x2="287.2" y2="217.1" stroke="#3a3a5a" stroke-width="0.5" stroke-opacity="0.6"/>
<line x1="645.3" y1="837.4" x2="306.2" y2="193.6" stroke="#3a3a5a" stroke-width="0.5" stroke-opacity="0.6"/>
<line x1="645.3" y1="837.4" x2="326.9" y2="171.6" stroke="#3a3a5a" stroke-width="0.5" stroke-opacity="0.6"/>
<line x1="645.3" y1="837.4" x2="349.3" y2="151.2" stroke="#3a3a5a" stroke-width="0.5" stroke-opacity="0.6"/>
<line x1="645.3" y1="837.4" x2="373.2" y2="132.7" stroke="#3a3a5a" stroke-width="0.5" stroke-opacity="0.6"/>
<line x1="645.3" y1="837.4" x2="398.5" y2="116.1" stroke="#3a3a5a" stroke-width="0.5" stroke-opacity="0.6"/>
<line x1="645.3" y1="837.4" x2="425.0" y2="101.5" stroke="#3a3a5a" stroke-width="0.5" stroke-opacity="0.6"/>
<line x1="645.3" y1="837.4" x2="452.5" y2="89.0" stroke="#3a3a5a" stroke-width="0.5" stroke-opacity="0.6"/>
<line x1="645.3" y1="837.4" x2="480.9" y2="78.6" stroke="#3a3a5a" stroke-width="0.5" stroke-opacity="0.6"/>
<line x1="645.3" y1="837.4" x2="510.1" y2="70.5" stroke="#3a3a5a" stroke-width="0.5" stroke-opacity="0.6"/>
<line x1="645.3" y1="837.4" x2="539.7" y2="64.7" stroke="#3a3a5a" stroke-width="0.5" stroke-opacity="0.6"/>
<line x1="645.3" y1="837.4" x2="569.8" y2="61.2" stroke="#3a3a5a" stroke-width="0.5" stroke-opacity="0.6"/>
<line x1="361.1" y1="758.3" x2="385.7" y2="775.8" stroke="#3a3a5a" stroke-width="0.5" stroke-opacity="0.6"/>
<line x1="337.9" y1="738.8" x2="361.1" y2="758.3" stroke="#3a3a5a" stroke-width="0.5" stroke-opacity="0.6"/>
<line x1="316.3" y1="717.6" x2="218.8" y2="532.6" stroke="#3a3a5a" stroke-width="0.5" stroke-opacity="0.6"/>
<line x1="316.3" y1="717.6" x2="337.9" y2="738.8" stroke="#3a3a5a" stroke-width="0.5" stroke-opacity="0.6"/>
<line x1="218.8" y1="532.6" x2="236.2" y2="590.5" stroke="#3a3a5a" stroke-width="0.5" stroke-opacity="0.6"/>
<line x1="213.6" y1="502.8" x2="248.2" y2="618.2" stroke="#3a3a5a" stroke-width="0.5" stroke-opacity="0.6"/>
<line x1="210.1" y1="442.4" x2="236.2" y2="590.5" stroke="#3a3a5a" stroke-width="0.5" stroke-opacity="0.6"/>
<line x1="210.1" y1="442.4" x2="226.4" y2="561.9" stroke="#3a3a5a" stroke-width="0.5" stroke-opacity="0.6"/>
<line x1="211.8" y1="412.2" x2="248.2" y2="618.2" stroke="#3a3a5a" stroke-width="0.5" stroke-opacity="0.6"/>
<line x1="215.9" y1="382.3" x2="316.3" y2="717.6" stroke="#3a3a5a" stroke-width="0.5" stroke-opacity="0.6"/>
<line x1="215.9" y1="382.3" x2="210.1" y2="442.4" stroke="#3a3a5a" stroke-width="0.5" stroke-opacity="0.6"/>
<line x1="215.9" y1="382.3" x2="296.4" y2="694.8" stroke="#3a3a5a" stroke-width="0.5" stroke-opacity="0.6"/>
<line x1="215.9" y1="382.3" x2="210.7" y2="472.7" stroke="#3a3a5a" stroke-width="0.5" stroke-opacity="0.6"/>
<line x1="215.9" y1="382.3" x2="211.8" y2="412.2" stroke="#3a3a5a" stroke-width="0.5" stroke-opacity="0.6"/>
<line x1="215.9" y1="382.3" x2="278.4" y2="670.6" stroke="#3a3a5a" stroke-width="0.5" stroke-opacity="0.6"/>
<line x1="222.3" y1="352.7" x2="213.6" y2="502.8" stroke="#3a3a5a" stroke-width="0.5" stroke-opacity="0.6"/>
<line x1="222.3" y1="352.7" x2="296.4" y2="694.8" stroke="#3a3a5a" stroke-width="0.5" stroke-opacity="0.6"/>
<line x1="222.3" y1="352.7" x2="278.4" y2="670.6" stroke="#3a3a5a" stroke-width="0.5" stroke-opacity="0.6"/>
<line x1="270.1" y1="242.1" x2="254.9" y2="268.2" stroke="#3a3a5a" stroke-width="0.5" stroke-opacity="0.6"/>
<line x1="287.2" y1="217.1" x2="254.9" y2="268.2" stroke="#3a3a5a" stroke-width="0.5" stroke-opacity="0.6"/>
<line x1="306.2" y1="193.6" x2="287.2" y2="217.1" stroke="#3a3a5a" stroke-width="0.5" stroke-opacity="0.6"/>
<line x1="373.2" y1="132.7" x2="231.0" y2="323.7" stroke="#3a3a5a" stroke-width="0.5" stroke-opacity="0.6"/>
<line x1="373.2" y1="132.7" x2="316.3" y2="717.6" stroke="#3a3a5a" stroke-width="0.5" stroke-opacity="0.6"/>
<line x1="373.2" y1="132.7" x2="222.3" y2="352.7" stroke="#3a3a5a" stroke-width="0.5" stroke-opacity="0.6"/>
<line x1="398.5" y1="116.1" x2="231.0" y2="323.7" stroke="#3a3a5a" stroke-width="0.5" stroke-opacity="0.6"/>
<line x1="398.5" y1="116.1" x2="241.9" y2="295.5" stroke="#3a3a5a" stroke-width="0.5" stroke-opacity="0.6"/>
<line x1="425.0" y1="101.5" x2="248.2" y2="618.2" stroke="#3a3a5a" stroke-width="0.5" stroke-opacity="0.6"/>
<line x1="452.5" y1="89.0" x2="270.1" y2="242.1" stroke="#3a3a5a" stroke-width="0.5" stroke-opacity="0.6"/>
<line x1="452.5" y1="89.0" x2="306.2" y2="193.6" stroke="#3a3a5a" stroke-width="0.5" stroke-opacity="0.6"/>
<line x1="452.5" y1="89.0" x2="326.9" y2="171.6" stroke="#3a3a5a" stroke-width="0.5" stroke-opacity="0.6"/>
<line x1="452.5" y1="89.0" x2="296.4" y2="694.8" stroke="#3a3a5a" stroke-width="0.5" stroke-opacity="0.6"/>
<line x1="452.5" y1="89.0" x2="349.3" y2="151.2" stroke="#3a3a5a" stroke-width="0.5" stroke-opacity="0.6"/>
<line x1="452.5" y1="89.0" x2="425.0" y2="101.5" stroke="#3a3a5a" stroke-width="0.5" stroke-opacity="0.6"/>
<line x1="452.5" y1="89.0" x2="278.4" y2="670.6" stroke="#3a3a5a" stroke-width="0.5" stroke-opacity="0.6"/>
<line x1="480.9" y1="78.6" x2="296.4" y2="694.8" stroke="#3a3a5a" stroke-width="0.5" stroke-opacity="0.6"/>
<line x1="480.9" y1="78.6" x2="337.9" y2="738.8" stroke="#3a3a5a" stroke-width="0.5" stroke-opacity="0.6"/>
<line x1="480.9" y1="78.6" x2="218.8" y2="532.6" stroke="#3a3a5a" stroke-width="0.5" stroke-opacity="0.6"/>
<line x1="480.9" y1="78.6" x2="213.6" y2="502.8" stroke="#3a3a5a" stroke-width="0.5" stroke-opacity="0.6"/>
<line x1="480.9" y1="78.6" x2="278.4" y2="670.6" stroke="#3a3a5a" stroke-width="0.5" stroke-opacity="0.6"/>
<line x1="510.1" y1="70.5" x2="296.4" y2="694.8" stroke="#3a3a5a" stroke-width="0.5" stroke-opacity="0.6"/>
<line x1="510.1" y1="70.5" x2="262.3" y2="645.0" stroke="#3a3a5a" stroke-width="0.5" stroke-opacity="0.6"/>
<line x1="510.1" y1="70.5" x2="373.2" y2="132.7" stroke="#3a3a5a" stroke-width="0.5" stroke-opacity="0.6"/>
<line x1="539.7" y1="64.7" x2="296.4" y2="694.8" stroke="#3a3a5a" stroke-width="0.5" stroke-opacity="0.6"/>
<line x1="569.8" y1="61.2" x2="373.2" y2="132.7" stroke="#3a3a5a" stroke-width="0.5" stroke-opacity="0.6"/>
<line x1="569.8" y1="61.2" x2="398.5" y2="116.1" stroke="#3a3a5a" stroke-width="0.5" stroke-opacity="0.6"/>
<line x1="569.8" y1="61.2" x2="452.5" y2="89.0" stroke="#3a3a5a" stroke-width="0.5" stroke-opacity="0.6"/>
<line x1="569.8" y1="61.2" x2="539.7" y2="64.7" stroke="#3a3a5a" stroke-width="0.5" stroke-opacity="0.6"/>
<line x1="569.8" y1="61.2" x2="480.9" y2="78.6" stroke="#3a3a5a" stroke-width="0.5" stroke-opacity="0.6"/>
<line x1="569.8" y1="61.2" x2="510.1" y2="70.5" stroke="#3a3a5a" stroke-width="0.5" stroke-opacity="0.6"/>
<line x1="569.8" y1="61.2" x2="215.9" y2="382.3" stroke="#3a3a5a" stroke-width="0.5" stroke-opacity="0.6"/>
<circle cx="600.0" cy="60.0" r="6" fill="#4E79A7" opacity="0.85"><title>vault_metadata</title></circle>
<circle cx="630.2" cy="61.2" r="6" fill="#4E79A7" opacity="0.85"><title>argparse</title></circle>
<circle cx="660.3" cy="64.7" r="6" fill="#4E79A7" opacity="0.85"><title>re</title></circle>
<circle cx="689.9" cy="70.5" r="6" fill="#4E79A7" opacity="0.85"><title>sys</title></circle>
<circle cx="719.1" cy="78.6" r="6" fill="#4E79A7" opacity="0.85"><title>pathlib.Path</title></circle>
<circle cx="747.5" cy="89.0" r="6" fill="#4E79A7" opacity="0.85"><title>yaml</title></circle>
<circle cx="775.0" cy="101.5" r="6" fill="#4E79A7" opacity="0.85"><title>load_fm_body()</title></circle>
<circle cx="801.5" cy="116.1" r="6" fill="#4E79A7" opacity="0.85"><title>dump_fm_body()</title></circle>
<circle cx="826.8" cy="132.7" r="6" fill="#4E79A7" opacity="0.85"><title>categories_str_list()</title></circle>
<circle cx="850.7" cy="151.2" r="6" fill="#4E79A7" opacity="0.85"><title>has_category_meetings()</title></circle>
<circle cx="873.1" cy="171.6" r="6" fill="#4E79A7" opacity="0.85"><title>has_category_tasks()</title></circle>
<circle cx="893.8" cy="193.6" r="6" fill="#4E79A7" opacity="0.85"><title>merge_wikilinks()</title></circle>
<circle cx="912.8" cy="217.1" r="6" fill="#4E79A7" opacity="0.85"><title>normalize_file()</title></circle>
<circle cx="929.9" cy="242.1" r="6" fill="#4E79A7" opacity="0.85"><title>audit_file()</title></circle>
<circle cx="945.1" cy="268.2" r="6" fill="#4E79A7" opacity="0.85"><title>cmd_normalize()</title></circle>
<circle cx="958.1" cy="295.5" r="6" fill="#4E79A7" opacity="0.85"><title>cmd_audit()</title></circle>
<circle cx="969.0" cy="323.7" r="6" fill="#4E79A7" opacity="0.85"><title>remove_legacy_file()</title></circle>
<circle cx="977.7" cy="352.7" r="6" fill="#4E79A7" opacity="0.85"><title>cmd_remove_legacy()</title></circle>
<circle cx="984.1" cy="382.3" r="6" fill="#4E79A7" opacity="0.85"><title>main()</title></circle>
<circle cx="988.2" cy="412.2" r="6" fill="#F28E2B" opacity="0.85"><title>category_cleanup</title></circle>
<circle cx="989.9" cy="442.4" r="6" fill="#F28E2B" opacity="0.85"><title>argparse</title></circle>
<circle cx="989.3" cy="472.7" r="6" fill="#F28E2B" opacity="0.85"><title>re</title></circle>
<circle cx="986.4" cy="502.8" r="6" fill="#F28E2B" opacity="0.85"><title>pathlib.Path</title></circle>
<circle cx="981.2" cy="532.6" r="6" fill="#F28E2B" opacity="0.85"><title>yaml</title></circle>
<circle cx="973.6" cy="561.9" r="6" fill="#F28E2B" opacity="0.85"><title>strip_category_name()</title></circle>
<circle cx="963.8" cy="590.5" r="6" fill="#F28E2B" opacity="0.85"><title>load_fm()</title></circle>
<circle cx="951.8" cy="618.2" r="6" fill="#F28E2B" opacity="0.85"><title>save_fm()</title></circle>
<circle cx="937.7" cy="645.0" r="6" fill="#F28E2B" opacity="0.85"><title>cleanup_note()</title></circle>
<circle cx="921.6" cy="670.6" r="6" fill="#F28E2B" opacity="0.85"><title>main()</title></circle>
<circle cx="903.6" cy="694.8" r="6" fill="#E15759" opacity="0.85"><title>normalize_property_keys</title></circle>
<circle cx="883.7" cy="717.6" r="6" fill="#E15759" opacity="0.85"><title>argparse</title></circle>
<circle cx="862.1" cy="738.8" r="6" fill="#E15759" opacity="0.85"><title>re</title></circle>
<circle cx="838.9" cy="758.3" r="6" fill="#E15759" opacity="0.85"><title>sys</title></circle>
<circle cx="814.3" cy="775.8" r="6" fill="#E15759" opacity="0.85"><title>pathlib.Path</title></circle>
<circle cx="788.4" cy="791.5" r="6" fill="#E15759" opacity="0.85"><title>yaml</title></circle>
<circle cx="761.4" cy="805.0" r="6" fill="#E15759" opacity="0.85"><title>dump_fm()</title></circle>
<circle cx="733.4" cy="816.5" r="6" fill="#E15759" opacity="0.85"><title>is_bug_type()</title></circle>
<circle cx="704.6" cy="825.7" r="6" fill="#E15759" opacity="0.85"><title>process_file()</title></circle>
<circle cx="675.2" cy="832.7" r="6" fill="#E15759" opacity="0.85"><title>main()</title></circle>
<circle cx="645.3" cy="837.4" r="6" fill="#76B7B2" opacity="0.85"><title>migrate_notes_flat</title></circle>
<circle cx="615.1" cy="839.7" r="6" fill="#76B7B2" opacity="0.85"><title>argparse</title></circle>
<circle cx="584.9" cy="839.7" r="6" fill="#76B7B2" opacity="0.85"><title>hashlib</title></circle>
<circle cx="554.7" cy="837.4" r="6" fill="#76B7B2" opacity="0.85"><title>json</title></circle>
<circle cx="524.8" cy="832.7" r="6" fill="#76B7B2" opacity="0.85"><title>os</title></circle>
<circle cx="495.4" cy="825.7" r="6" fill="#76B7B2" opacity="0.85"><title>re</title></circle>
<circle cx="466.6" cy="816.5" r="6" fill="#76B7B2" opacity="0.85"><title>shutil</title></circle>
<circle cx="438.6" cy="805.0" r="6" fill="#76B7B2" opacity="0.85"><title>pathlib.Path</title></circle>
<circle cx="411.6" cy="791.5" r="6" fill="#76B7B2" opacity="0.85"><title>typing.Any</title></circle>
<circle cx="385.7" cy="775.8" r="6" fill="#4E79A7" opacity="0.85"><title>load_path_map()</title></circle>
<circle cx="361.1" cy="758.3" r="6" fill="#4E79A7" opacity="0.85"><title>load_path_map_reverse()</title></circle>
<circle cx="337.9" cy="738.8" r="6" fill="#EDC948" opacity="0.85"><title>canonical_path_for_metadata()</title></circle>
<circle cx="316.3" cy="717.6" r="6" fill="#EDC948" opacity="0.85"><title>metadata_for_inject()</title></circle>
<circle cx="296.4" cy="694.8" r="6" fill="#59A14F" opacity="0.85"><title>split_first_frontmatter()</title></circle>
<circle cx="278.4" cy="670.6" r="6" fill="#B07AA1" opacity="0.85"><title>join_frontmatter()</title></circle>
<circle cx="262.3" cy="645.0" r="6" fill="#59A14F" opacity="0.85"><title>fm_has_key()</title></circle>
<circle cx="248.2" cy="618.2" r="6" fill="#EDC948" opacity="0.85"><title>yaml_quote()</title></circle>
<circle cx="236.2" cy="590.5" r="6" fill="#F28E2B" opacity="0.85"><title>org_wikilink()</title></circle>
<circle cx="226.4" cy="561.9" r="6" fill="#E15759" opacity="0.85"><title>strip_wikilink()</title></circle>
<circle cx="218.8" cy="532.6" r="6" fill="#F28E2B" opacity="0.85"><title>derive_metadata()</title></circle>
<circle cx="213.6" cy="502.8" r="6" fill="#59A14F" opacity="0.85"><title>inject_lines_for_meta()</title></circle>
<circle cx="210.7" cy="472.7" r="6" fill="#9C755F" opacity="0.85"><title>strip_categories_block()</title></circle>
<circle cx="210.1" cy="442.4" r="6" fill="#E15759" opacity="0.85"><title>derive_categories_wikilinks()</title></circle>
<circle cx="211.8" cy="412.2" r="6" fill="#EDC948" opacity="0.85"><title>categories_yaml_lines()</title></circle>
<circle cx="215.9" cy="382.3" r="6" fill="#9C755F" opacity="0.85"><title>cmd_sync_categories()</title></circle>
<circle cx="222.3" cy="352.7" r="6" fill="#59A14F" opacity="0.85"><title>inject_frontmatter()</title></circle>
<circle cx="231.0" cy="323.7" r="6" fill="#FF9DA7" opacity="0.85"><title>collect_notes_files()</title></circle>
<circle cx="241.9" cy="295.5" r="6" fill="#FF9DA7" opacity="0.85"><title>build_path_map()</title></circle>
<circle cx="254.9" cy="268.2" r="6" fill="#9C755F" opacity="0.85"><title>basename_no_ext()</title></circle>
<circle cx="270.1" cy="242.1" r="6" fill="#9C755F" opacity="0.85"><title>collect_basename_index()</title></circle>
<circle cx="287.2" cy="217.1" r="6" fill="#76B7B2" opacity="0.85"><title>resolve_link_target()</title></circle>
<circle cx="306.2" cy="193.6" r="6" fill="#76B7B2" opacity="0.85"><title>rewrite_wikilinks()</title></circle>
<circle cx="326.9" cy="171.6" r="6" fill="#B07AA1" opacity="0.85"><title>rewrite_markdown_links()</title></circle>
<circle cx="349.3" cy="151.2" r="6" fill="#B07AA1" opacity="0.85"><title>rewrite_notes_paths()</title></circle>
<circle cx="373.2" cy="132.7" r="6" fill="#FF9DA7" opacity="0.85"><title>cmd_inject()</title></circle>
<circle cx="398.5" cy="116.1" r="6" fill="#FF9DA7" opacity="0.85"><title>cmd_flatten()</title></circle>
<circle cx="425.0" cy="101.5" r="6" fill="#EDC948" opacity="0.85"><title>restore_original_path_line()</title></circle>
<circle cx="452.5" cy="89.0" r="6" fill="#B07AA1" opacity="0.85"><title>cmd_rewrite()</title></circle>
<circle cx="480.9" cy="78.6" r="6" fill="#B07AA1" opacity="0.85"><title>cmd_fix_meta()</title></circle>
<circle cx="510.1" cy="70.5" r="6" fill="#59A14F" opacity="0.85"><title>cmd_audit_metadata()</title></circle>
<circle cx="539.7" cy="64.7" r="6" fill="#BAB0AC" opacity="0.85"><title>cmd_validate()</title></circle>
<circle cx="569.8" cy="61.2" r="6" fill="#BAB0AC" opacity="0.85"><title>main()</title></circle>
</svg>
